<svg width="40" height="40" viewBox="0 0 40 40" fill="none" xmlns="http://www.w3.org/2000/svg">
<path fill-rule="evenodd" clip-rule="evenodd" d="M3.63636 20C3.63636 10.9626 10.9626 3.63636 20 3.63636C29.0374 3.63636 36.3636 10.9626 36.3636 20C36.3636 29.0374 29.0374 36.3636 20 36.3636C10.9626 36.3636 3.63636 29.0374 3.63636 20ZM20 0C8.9543 0 0 8.9543 0 20C0 31.0457 8.9543 40 20 40C31.0457 40 40 31.0457 40 20C40 8.9543 31.0457 0 20 0ZM21.8182 9.09091C21.8182 8.08676 21.0042 7.27273 20 7.27273C18.9958 7.27273 18.1818 8.08676 18.1818 9.09091V20C18.1818 20.6887 18.5709 21.3182 19.1869 21.6262L26.4596 25.2626C27.3578 25.7117 28.4499 25.3476 28.899 24.4495C29.348 23.5513 28.984 22.4592 28.0858 22.0101L21.8182 18.8763V9.09091Z" fill="#FD4455"/>
</svg>
