<svg width="23" height="21" viewBox="0 0 23 21" fill="none" xmlns="http://www.w3.org/2000/svg">
<path fill-rule="evenodd" clip-rule="evenodd" d="M2.9729 3C2.9729 2.44772 3.42062 2 3.9729 2C4.52519 2 4.9729 2.44772 4.9729 3C4.9729 3.55228 4.52519 4 3.9729 4C3.42062 4 2.9729 3.55228 2.9729 3ZM3.9729 0C2.31605 0 0.9729 1.34315 0.9729 3C0.9729 4.65685 2.31605 6 3.9729 6C5.62976 6 6.9729 4.65685 6.9729 3C6.9729 1.34315 5.62976 0 3.9729 0ZM15.9729 8C14.6468 8 13.375 8.52678 12.4374 9.46447C11.4997 10.4021 10.9729 11.6739 10.9729 13V19H12.9729V13C12.9729 12.2043 13.289 11.4413 13.8516 10.8787C14.4142 10.3161 15.1772 10 15.9729 10C16.7686 10 17.5316 10.3161 18.0942 10.8787C18.6568 11.4413 18.9729 12.2043 18.9729 13V19H20.9729V13C20.9729 11.6739 20.4461 10.4021 19.5084 9.46447C18.5708 8.52678 17.299 8 15.9729 8ZM15.9729 6C14.1164 6 12.3359 6.7375 11.0232 8.05025C9.7104 9.36301 8.9729 11.1435 8.9729 13V20C8.9729 20.5523 9.42062 21 9.9729 21H13.9729C14.5252 21 14.9729 20.5523 14.9729 20V13C14.9729 12.7348 15.0783 12.4804 15.2658 12.2929C15.4533 12.1054 15.7077 12 15.9729 12C16.2381 12 16.4925 12.1054 16.68 12.2929C16.8675 12.4804 16.9729 12.7348 16.9729 13V20C16.9729 20.5523 17.4206 21 17.9729 21H21.9729C22.5252 21 22.9729 20.5523 22.9729 20V13C22.9729 11.1435 22.2354 9.36301 20.9226 8.05025C19.6099 6.7375 17.8294 6 15.9729 6ZM0.9729 8C0.9729 7.44772 1.42062 7 1.9729 7H5.9729C6.52519 7 6.9729 7.44772 6.9729 8V20C6.9729 20.5523 6.52519 21 5.9729 21H1.9729C1.42062 21 0.9729 20.5523 0.9729 20V8ZM2.9729 9V19H4.9729V9H2.9729Z" fill="#52596E"/>
</svg>
