<svg width="40" height="34" viewBox="0 0 40 34" fill="none" xmlns="http://www.w3.org/2000/svg">
<path fill-rule="evenodd" clip-rule="evenodd" d="M10 8.33333C10 5.57191 12.2386 3.33333 15 3.33333C17.7614 3.33333 20 5.57191 20 8.33333C20 11.0948 17.7614 13.3333 15 13.3333C12.2386 13.3333 10 11.0948 10 8.33333ZM15 0C10.3976 0 6.66667 3.73096 6.66667 8.33333C6.66667 12.9357 10.3976 16.6667 15 16.6667C19.6024 16.6667 23.3333 12.9357 23.3333 8.33333C23.3333 3.73096 19.6024 0 15 0ZM8.33333 20C6.1232 20 4.00358 20.878 2.44078 22.4408C0.877974 24.0036 0 26.1232 0 28.3333V31.6667C0 32.5871 0.746192 33.3333 1.66667 33.3333C2.58714 33.3333 3.33333 32.5871 3.33333 31.6667V28.3333C3.33333 27.0073 3.86012 25.7355 4.7978 24.7978C5.73548 23.8601 7.00725 23.3333 8.33333 23.3333H21.6667C22.9928 23.3333 24.2645 23.8601 25.2022 24.7978C26.1399 25.7355 26.6667 27.0072 26.6667 28.3333V31.6667C26.6667 32.5871 27.4129 33.3333 28.3333 33.3333C29.2538 33.3333 30 32.5871 30 31.6667V28.3333C30 26.1232 29.122 24.0036 27.5592 22.4408C25.9964 20.878 23.8768 20 21.6667 20H8.33333ZM31.7196 21.4669C31.9497 20.5756 32.8588 20.0397 33.75 20.2698C35.5378 20.7314 37.1216 21.7737 38.2528 23.233C39.3841 24.6922 39.9986 26.4859 40 28.3323V31.6669C40 32.5874 39.2538 33.3335 38.3333 33.3335C37.4129 33.3335 36.6667 32.5874 36.6667 31.6669V28.3348C36.6657 27.2271 36.297 26.1506 35.6184 25.2752C34.9396 24.3996 33.9893 23.7742 32.9167 23.4973C32.0254 23.2672 31.4895 22.3581 31.7196 21.4669ZM27.0801 0.268956C26.1884 0.0406421 25.2804 0.578431 25.0521 1.47014C24.8238 2.36185 25.3616 3.26981 26.2533 3.49812C27.3288 3.7735 28.2821 4.399 28.9628 5.27601C29.6436 6.15302 30.0131 7.23166 30.0131 8.34187C30.0131 9.45209 29.6436 10.5307 28.9628 11.4077C28.2821 12.2847 27.3288 12.9102 26.2533 13.1856C25.3616 13.4139 24.8238 14.3219 25.0521 15.2136C25.2804 16.1053 26.1884 16.6431 27.0801 16.4148C28.8726 15.9558 30.4614 14.9133 31.596 13.4516C32.7306 11.99 33.3464 10.1922 33.3464 8.34187C33.3464 6.49152 32.7306 4.69379 31.596 3.2321C30.4614 1.77042 28.8726 0.727917 27.0801 0.268956Z" fill="#335DFF"/>
</svg>
