<svg width="24" height="21" viewBox="0 0 24 21" fill="none" xmlns="http://www.w3.org/2000/svg">
<path fill-rule="evenodd" clip-rule="evenodd" d="M14.5256 0.888568C15.5744 0.488262 16.7208 0.419719 17.8099 0.692209C18.6759 0.908898 19.4724 1.33293 20.1327 1.92348C20.9449 1.62496 21.7152 1.22095 22.4237 0.721213L23.0001 1.53838L23.9717 1.77499C23.6292 3.18152 22.9426 4.47794 21.977 5.54935C21.9918 5.71075 21.9996 5.87281 22.0001 6.03507L22.0001 6.03838C22.0001 12.1383 19.0632 16.6134 14.845 18.8586C10.651 21.0909 5.29097 21.0662 0.51446 18.4125C0.109649 18.1876 -0.0877967 17.7142 0.0372519 17.2683C0.162301 16.8225 0.577127 16.5208 1.03985 16.5392C2.72666 16.6063 4.39647 16.2709 5.91484 15.5714C4.41169 14.6438 3.32952 13.5426 2.57716 12.3547C1.57353 10.77 1.19466 9.09128 1.12613 7.58378C1.05781 6.08066 1.29658 4.72727 1.54758 3.75674C1.67368 3.26915 1.80452 2.87188 1.90538 2.59291C1.95587 2.45326 1.99901 2.34279 2.03054 2.26496C2.04631 2.22603 2.0592 2.19522 2.06866 2.17297L2.08023 2.14604L2.08319 2.13929C2.09023 2.12311 2.09773 2.10706 2.10568 2.09116L3.0001 2.53838L3.81846 1.96367C4.734 3.26734 5.95775 4.32437 7.38071 5.04059C8.51256 5.61029 9.7425 5.9503 10.9998 6.04479C10.9924 4.93513 11.3221 3.84904 11.9457 2.93043C12.5762 2.00163 13.4768 1.28887 14.5256 0.888568ZM3.40475 4.58198C3.22106 5.38335 3.07437 6.39961 3.12407 7.49297C3.18055 8.73547 3.48918 10.0568 4.2668 11.2846C5.04039 12.506 6.31614 13.6956 8.40624 14.6246C8.73804 14.772 8.96384 15.0878 8.99614 15.4494C9.02844 15.8111 8.86216 16.1618 8.56173 16.3658C7.4508 17.1199 6.2343 17.6872 4.9602 18.0541C8.13037 18.8617 11.3071 18.476 13.9053 17.0931C17.4366 15.2135 19.9996 11.4392 20.0001 6.04004C19.9993 5.82395 19.9785 5.60839 19.9379 5.39613C19.8752 5.06827 19.9803 4.73075 20.2179 4.49637C20.4407 4.27668 20.647 4.04254 20.8358 3.79588C20.6093 3.87943 20.3801 3.95616 20.1484 4.02591C19.7718 4.13932 19.3637 4.02141 19.1055 3.72461C18.6377 3.1867 18.016 2.80544 17.3244 2.6324C16.6328 2.45935 15.9048 2.50288 15.2388 2.75709C14.5727 3.0113 14.0009 3.46393 13.6005 4.05375C13.2001 4.64358 12.9905 5.34214 13 6.05497L13.0002 6.06838H13.0001V7.06838C13.0001 7.61056 12.568 8.05399 12.026 8.06804C10.1038 8.11788 8.19909 7.69157 6.48152 6.82705C5.33595 6.25045 4.29735 5.49086 3.40475 4.58198Z" fill="#52596E"/>
</svg>
