<svg width="25" height="19" viewBox="0 0 25 19" fill="none" xmlns="http://www.w3.org/2000/svg">
<path fill-rule="evenodd" clip-rule="evenodd" d="M12.8968 2.77013L12.9722 2.77002L13.0479 2.77012L13.267 2.77083C13.4569 2.77164 13.7305 2.77327 14.0644 2.77653C14.7325 2.78306 15.6401 2.79611 16.6001 2.82215C17.5616 2.84824 18.5682 2.88718 19.4364 2.945C20.3149 3.0035 20.9772 3.07722 21.3172 3.15719C21.6118 3.24375 21.8792 3.40511 22.0931 3.62568C22.3042 3.84335 22.4562 4.11122 22.5346 4.40379C22.8365 6.0901 22.983 7.8006 22.9722 9.51374L22.9723 9.52361C22.9783 11.211 22.8319 12.8954 22.5346 14.5563C22.4561 14.8488 22.3042 15.1167 22.0931 15.3344C21.8767 15.5575 21.6056 15.72 21.3069 15.8058C20.9781 15.8924 20.3182 15.9738 19.4301 16.0386C18.5636 16.1018 17.5584 16.1444 16.5975 16.173C15.6383 16.2015 14.7312 16.2157 14.0634 16.2229C13.7297 16.2265 13.4563 16.2282 13.2665 16.2291C13.1717 16.2296 13.0978 16.2298 13.0477 16.2299H12.8968C12.8467 16.2298 12.7728 16.2296 12.678 16.2291C12.4882 16.2282 12.2148 16.2265 11.8811 16.2229C11.2133 16.2157 10.3062 16.2015 9.34695 16.173C8.38608 16.1444 7.38085 16.1018 6.51437 16.0386C5.62245 15.9736 4.96071 15.8917 4.63339 15.8047C4.33919 15.7237 4.07074 15.5684 3.85383 15.3537C3.64678 15.1488 3.49335 14.8964 3.40673 14.6187C3.10696 12.9381 2.96158 11.2335 2.97229 9.5263L2.97224 9.51508C2.96384 7.81484 3.11032 6.11739 3.40986 4.44377C3.48835 4.15121 3.64026 3.88334 3.85139 3.66568C4.06783 3.44255 4.3389 3.28002 4.6376 3.19421C4.96637 3.10762 5.62626 3.02621 6.51437 2.96143C7.38085 2.89823 8.38608 2.85563 9.34695 2.82708C10.3062 2.79857 11.2133 2.78429 11.8811 2.77715C12.2148 2.77358 12.4882 2.7718 12.678 2.77091C12.7728 2.77046 12.8467 2.77024 12.8968 2.77013ZM13.052 0.770124L12.9721 0.77002L12.8924 0.770134C12.8408 0.770248 12.7652 0.770476 12.6686 0.770929C12.4754 0.771836 12.1979 0.773646 11.8597 0.777264C11.1837 0.784496 10.2633 0.798966 9.28755 0.827961C8.31342 0.856908 7.27615 0.900557 6.36888 0.966732C5.48958 1.03087 4.64754 1.12125 4.11389 1.26397L4.10002 1.26779C3.45993 1.44888 2.87897 1.79568 2.41581 2.27317C1.95265 2.75065 1.62369 3.34191 1.46218 3.98721C1.45677 4.00883 1.45208 4.03062 1.44813 4.05255C1.12282 5.85645 0.963522 7.68638 0.972236 9.51935C0.960986 11.3661 1.12029 13.21 1.44813 15.0275C1.45399 15.06 1.46145 15.0922 1.47049 15.1239C1.64856 15.7492 1.98488 16.3179 2.44696 16.7753C2.90904 17.2326 3.48126 17.563 4.10833 17.7346L4.11389 17.7361C4.64754 17.8788 5.48958 17.9692 6.36888 18.0333C7.27615 18.0995 8.31342 18.1431 9.28755 18.1721C10.2633 18.2011 11.1837 18.2155 11.8597 18.2228C12.1979 18.2264 12.4754 18.2282 12.6686 18.2291C12.7652 18.2296 12.8408 18.2298 12.8924 18.2299L12.9727 18.23L13.0521 18.2299C13.1037 18.2298 13.1793 18.2296 13.2759 18.2291C13.4691 18.2282 13.7466 18.2264 14.0848 18.2228C14.7608 18.2155 15.6812 18.2011 16.657 18.1721C17.6311 18.1431 18.6684 18.0995 19.5756 18.0333C20.4549 17.9692 21.297 17.8788 21.8306 17.7361L21.8445 17.7323C22.4846 17.5512 23.0655 17.2044 23.5287 16.7269C23.9919 16.2494 24.3208 15.6581 24.4823 15.0128C24.4877 14.9912 24.4924 14.9694 24.4964 14.9475C24.8192 13.1569 24.9785 11.3407 24.9723 9.52135C24.9836 7.67434 24.8243 5.83023 24.4964 4.01251L23.5123 4.19002L24.4823 3.94721C24.3208 3.30191 23.9919 2.71065 23.5287 2.23317C23.0655 1.75568 22.4846 1.40888 21.8445 1.22779C21.8329 1.2245 21.8212 1.22143 21.8095 1.21856C21.2837 1.09019 20.449 1.008 19.5693 0.949417C18.6638 0.889113 17.6279 0.849302 16.6544 0.822887C15.6794 0.796434 14.7595 0.783229 14.0839 0.77663C13.7459 0.773328 13.4686 0.771676 13.2755 0.770849C13.179 0.770435 13.1035 0.770228 13.052 0.770124ZM11.2166 5.38074C10.9071 5.2047 10.5273 5.20655 10.2195 5.38561C9.91166 5.56466 9.72229 5.8939 9.72229 6.25V12.79C9.72229 13.1461 9.91166 13.4753 10.2195 13.6544C10.5273 13.8334 10.9071 13.8353 11.2166 13.6593L16.9666 10.3893C17.2792 10.2115 17.4723 9.87959 17.4723 9.52C17.4723 9.16041 17.2792 8.8285 16.9666 8.65074L11.2166 5.38074ZM14.4494 9.52L11.7223 11.0709V7.96909L14.4494 9.52Z" fill="#52596E"/>
</svg>
