<svg width="203" height="40" viewBox="0 0 203 40" fill="none" xmlns="http://www.w3.org/2000/svg">
<circle cx="20" cy="20" r="20" fill="#F0F3FF"/>
<path d="M30 22C30 23.3132 29.7413 24.6136 29.2388 25.8268C28.7362 27.0401 27.9997 28.1425 27.0711 29.0711C26.1425 29.9997 25.0401 30.7362 23.8268 31.2388C22.6136 31.7413 21.3132 32 20 32C18.6868 32 17.3864 31.7413 16.1732 31.2388C14.9599 30.7362 13.8575 29.9997 12.9289 29.0711C12.0003 28.1425 11.2638 27.0401 10.7612 25.8268C10.2587 24.6136 10 23.3132 10 22L20 22H30Z" fill="#335DFF"/>
<path d="M75.1648 17.3693C74.7386 13.1932 71.6278 10.8068 67.4091 10.8068C62.7557 10.8068 59.1335 14.0028 59.1335 19.7727C59.1335 25.517 62.6705 28.7386 67.4091 28.7386C72.1989 28.7386 74.8494 25.483 75.1648 22.3892L70.9034 22.3636C70.6051 24.0426 69.3438 25.0398 67.4943 25.0398C65.0057 25.0398 63.4375 23.2415 63.4375 19.7727C63.4375 16.4403 64.9716 14.5057 67.5199 14.5057C69.4375 14.5057 70.6903 15.6222 70.9034 17.3693H75.1648ZM77.5788 28.5H81.7464V21.392C81.7464 19.8324 82.8544 18.7841 84.3459 18.7841C84.8402 18.7841 85.5817 18.8693 85.9822 19.0057V15.3835C85.6328 15.2898 85.1982 15.2301 84.8146 15.2301C83.3828 15.2301 82.2408 16.0653 81.7635 17.7955H81.6271V15.4091H77.5788V28.5ZM93.12 28.7472C96.5547 28.7472 98.8132 27.0852 99.2905 24.5114L95.4638 24.4006C95.1399 25.2699 94.2876 25.7386 93.1967 25.7386C91.5945 25.7386 90.6058 24.6733 90.6058 23.071V22.9602H99.3331V21.9205C99.3331 17.608 96.7081 15.2386 92.9922 15.2386C89.0376 15.2386 86.4979 17.9489 86.4979 22.0057C86.4979 26.1989 89.0036 28.7472 93.12 28.7472ZM90.6058 20.5398C90.6655 19.2358 91.6967 18.2472 93.0774 18.2472C94.4496 18.2472 95.4382 19.2017 95.4553 20.5398H90.6058ZM106.243 28.6875C108.22 28.6875 109.396 27.5881 109.925 26.3778H110.053V28.5H114.178V11.0455H110.01V17.6506H109.925C109.43 16.4489 108.288 15.2386 106.226 15.2386C103.49 15.2386 101.01 17.3438 101.01 21.9631C101.01 26.4205 103.354 28.6875 106.243 28.6875ZM107.692 25.4403C106.149 25.4403 105.288 24.0682 105.288 21.9545C105.288 19.8494 106.141 18.4943 107.692 18.4943C109.217 18.4943 110.104 19.8153 110.104 21.9545C110.104 24.0767 109.209 25.4403 107.692 25.4403ZM116.813 28.5H120.981V15.4091H116.813V28.5ZM118.901 13.8835C120.086 13.8835 121.04 12.9886 121.04 11.8892C121.04 10.7898 120.086 9.90341 118.901 9.90341C117.725 9.90341 116.762 10.7898 116.762 11.8892C116.762 12.9886 117.725 13.8835 118.901 13.8835ZM135.062 19.4062C134.841 16.8153 132.719 15.2386 129.173 15.2386C125.628 15.2386 123.369 16.7812 123.386 19.4062C123.369 21.4176 124.656 22.7131 127.273 23.1989L129.557 23.6335C130.639 23.8466 131.134 24.1875 131.151 24.767C131.134 25.4233 130.401 25.858 129.335 25.858C128.151 25.858 127.349 25.3466 127.17 24.392L123.054 24.4943C123.352 27.0852 125.577 28.7472 129.318 28.7472C132.821 28.7472 135.369 27 135.386 24.3068C135.369 22.3977 134.108 21.2642 131.5 20.7614L128.977 20.2841C127.869 20.0625 127.511 19.6705 127.52 19.1676C127.511 18.5028 128.287 18.0938 129.25 18.0938C130.349 18.0938 131.116 18.6818 131.236 19.5085L135.062 19.4062ZM143.549 28.7472C147.231 28.7472 149.515 26.608 149.626 23.3693H145.731C145.577 24.7585 144.742 25.517 143.6 25.517C142.134 25.517 141.18 24.2812 141.18 21.9545C141.18 19.6449 142.143 18.4091 143.6 18.4091C144.793 18.4091 145.569 19.2188 145.731 20.5568H149.626C149.532 17.3352 147.18 15.2386 143.54 15.2386C139.424 15.2386 136.935 17.983 136.935 21.9972C136.935 25.9943 139.407 28.7472 143.549 28.7472ZM155.926 21.0341C155.935 19.5426 156.821 18.6562 158.142 18.6562C159.48 18.6562 160.256 19.517 160.247 20.9744V28.5H164.415V20.1562C164.423 17.1903 162.616 15.2386 159.864 15.2386C157.903 15.2386 156.523 16.2017 155.935 17.8125H155.79V11.0455H151.759V28.5H155.926V21.0341ZM173.127 28.7472C177.244 28.7472 179.741 26.0284 179.741 21.9972C179.741 17.9574 177.244 15.2386 173.127 15.2386C169.011 15.2386 166.513 17.9574 166.513 21.9972C166.513 26.0284 169.011 28.7472 173.127 28.7472ZM173.153 25.6023C171.61 25.6023 170.758 24.1364 170.758 21.9716C170.758 19.7983 171.61 18.3239 173.153 18.3239C174.644 18.3239 175.496 19.7983 175.496 21.9716C175.496 24.1364 174.644 25.6023 173.153 25.6023ZM187.987 28.7472C192.103 28.7472 194.6 26.0284 194.6 21.9972C194.6 17.9574 192.103 15.2386 187.987 15.2386C183.87 15.2386 181.373 17.9574 181.373 21.9972C181.373 26.0284 183.87 28.7472 187.987 28.7472ZM188.012 25.6023C186.469 25.6023 185.617 24.1364 185.617 21.9716C185.617 19.7983 186.469 18.3239 188.012 18.3239C189.504 18.3239 190.356 19.7983 190.356 21.9716C190.356 24.1364 189.504 25.6023 188.012 25.6023ZM200.903 11.0455H196.735V28.5H200.903V11.0455Z" fill="#030F4B"/>
</svg>
